<svg xmlns="http://www.w3.org/2000/svg" style="display: none;">
  
    <symbol id="icon-linkedin" viewBox="0 0 512 512">
      <path d="M416 32H31.9C14.3 32 0 46.5 0 64.3v383.4C0 465.5 14.3 480 31.9 480H416c17.6 0 32-14.5 32-32.3V64.3c0-17.8-14.4-32.3-32-32.3zM135.4 416H69V202.2h66.5V416zm-33.2-243c-21.3 0-38.5-17.3-38.5-38.5S80.9 96 102.2 96c21.2 0 38.5 17.3 38.5 38.5 0 21.3-17.2 38.5-38.5 38.5zm282.1 243h-66.4V312c0-24.8-.5-56.7-34.5-56.7-34.6 0-39.9 27-39.9 54.9V416h-66.4V202.2h63.7v29.2h.9c8.9-16.8 30.6-34.5 62.9-34.5 67.2 0 79.7 44.3 79.7 101.9V416z"></path>
    </symbol>
  
    <symbol id="icon-facebook" viewBox="0 0 512 512">
      <path d="m480 57l0 398c0 14-11 25-25 25l-114 0 0-173 58 0 9-68-67 0 0-43c0-20 5-33 34-33l35 0 0-61c-6 0-27-2-52-2-51 0-87 31-87 89l0 50-58 0 0 68 58 0 0 173-214 0c-14 0-25-11-25-25l0-398c0-14 11-25 25-25l398 0c14 0 25 11 25 25z"/>
    </symbol>

    <symbol id="icon-external" viewBox="0 0 32 32">
      <path d=" M4 4 L12 4 L12 8 L8 8 L8 24 L24 24 L24 20 L28 20 L28 28 L4 28 z M16 4 L28 4 L28 16 L24 12 L16 20 L12 16 L20 8z "/>
    </symbol>

    <symbol id="icon-bars" viewBox="0 0 448 512">
      <path d="M16 132h416c8.837 0 16-7.163 16-16V76c0-8.837-7.163-16-16-16H16C7.163 60 0 67.163 0 76v40c0 8.837 7.163 16 16 16zm0 160h416c8.837 0 16-7.163 16-16v-40c0-8.837-7.163-16-16-16H16c-8.837 0-16 7.163-16 16v40c0 8.837 7.163 16 16 16zm0 160h416c8.837 0 16-7.163 16-16v-40c0-8.837-7.163-16-16-16H16c-8.837 0-16 7.163-16 16v40c0 8.837 7.163 16 16 16z"/>
    </symbol>
  
    <symbol id="icon-ellipsis-h" viewBox="0 0 512 512">
      <path d="m304 256c0 27-21 48-48 48-26 0-48-21-48-48 0-26 22-48 48-48 27 0 48 22 48 48z m120-48c-26 0-48 22-48 48 0 27 22 48 48 48 27 0 48-21 48-48 0-26-21-48-48-48z m-336 0c-26 0-48 22-48 48 0 27 22 48 48 48 27 0 48-21 48-48 0-26-21-48-48-48z"/>
    </symbol>
  
    <symbol id="icon-angle-down" viewBox="0 0 512 512">
      <path d="m248 348l-148-147c-5-5-5-12 0-17l19-20c5-4 13-4 17 0l120 119 120-119c4-4 12-4 17 0l20 20c4 5 4 12 0 17l-148 147c-5 5-13 5-17 0z"/>
    </symbol>
  
    <symbol id="icon-angle-left" viewBox="0 0 512 512">
      <path d="m164 248l147-148c5-5 12-5 17 0l20 19c5 5 5 13 0 17l-119 120 119 120c5 4 5 12 0 17l-20 20c-5 4-12 4-17 0l-147-148c-4-5-4-13 0-17z"/>
    </symbol>
  
    <symbol id="icon-angle-up" viewBox="0 0 512 512">
      <path d="m265 164l148 147c4 5 4 12 0 17l-20 20c-5 5-13 5-17 0l-120-119-120 119c-4 5-12 5-17 0l-19-20c-5-5-5-12 0-17l148-147c4-4 12-4 17 0z"/>
    </symbol>
  
    <symbol id="icon-angle-right" viewBox="0 0 512 512">
      <path d="m348 265l-147 148c-5 4-12 4-17 0l-20-20c-4-5-4-13 0-17l119-120-119-120c-4-4-4-12 0-17l20-19c5-5 12-5 17 0l147 148c5 4 5 12 0 17z"/>
    </symbol>
  
    <symbol id="icon-caret-down" viewBox="0 0 512 512">
      <path d="m127 192l258 0c17 0 26 22 14 34l-129 129c-8 8-20 8-28 0l-129-129c-12-12-3-34 14-34z"/>
    </symbol>
  
    <symbol id="icon-caret-left" viewBox="0 0 512 512">
      <path d="m352 127l0 258c0 17-22 26-34 14l-129-129c-8-8-8-20 0-28l129-129c12-12 34-3 34 14z"/>
    </symbol>
  
    <symbol id="icon-caret-right" viewBox="0 0 512 512">
      <path d="m160 385l0-258c0-17 22-26 34-14l129 129c8 8 8 20 0 28l-129 129c-12 12-34 3-34-14z"/>
    </symbol>
  
    <symbol id="icon-caret-up" viewBox="0 0 512 512">
      <path d="m385 352l-258 0c-17 0-26-22-14-34l129-129c8-8 20-8 28 0l129 129c12 12 3 34-14 34z"/>
    </symbol>
  
    <symbol id="icon-plus" viewBox="0 0 512 512">
      <path d="m432 224l-144 0 0-144c0-9-7-16-16-16l-32 0c-9 0-16 7-16 16l0 144-144 0c-9 0-16 7-16 16l0 32c0 9 7 16 16 16l144 0 0 144c0 9 7 16 16 16l32 0c9 0 16-7 16-16l0-144 144 0c9 0 16-7 16-16l0-32c0-9-7-16-16-16z"/>
    </symbol>
  
    <symbol id="icon-envelope" viewBox="0 0 512 512">
      <path d="m502 191c4-3 10 0 10 5l0 204c0 27-21 48-48 48l-416 0c-26 0-48-21-48-48l0-204c0-5 6-8 10-5 22 17 52 39 154 114 21 15 57 47 92 47 36 3 72-33 92-47 102-75 132-97 154-114z m-246 129c23 4 57-29 73-41 133-97 143-105 174-129 6-5 9-12 9-19l0-19c0-26-21-48-48-48l-416 0c-26 0-48 22-48 48l0 19c0 7 3 14 9 19 31 24 41 32 174 129 16 12 50 41 73 41z"/>
    </symbol>
  
    <symbol id="icon-search" viewBox="0 0 512 512">
      <path d="m509 469l-122-121c-2-3-5-4-8-4l-14 0c32-36 51-84 51-136 0-115-93-208-208-208-115 0-208 93-208 208 0 115 93 208 208 208 52 0 100-19 136-51l0 14c0 3 1 6 4 8l121 122c5 4 12 4 17 0l23-23c4-5 4-12 0-17z m-301-101c-88 0-160-72-160-160 0-88 72-160 160-160 88 0 160 72 160 160 0 88-72 160-160 160z"/>
    </symbol>
  
    <symbol id="icon-times" viewBox="0 0 512 512">
      <path d="m323 256l100-100c12-12 12-32 0-45l-22-22c-13-12-33-12-45 0l-100 100-100-100c-12-12-32-12-45 0l-22 22c-12 13-12 33 0 45l100 100-100 100c-12 12-12 32 0 45l22 22c13 12 33 12 45 0l100-100 100 100c12 12 32 12 45 0l22-22c12-13 12-33 0-45z"/>
    </symbol>

    <symbol id="icon-twitter" viewBox="0 0 512 512">
      <path d="M459.37 151.716c.325 4.548.325 9.097.325 13.645 0 138.72-105.583 298.558-298.558 298.558-59.452 0-114.68-17.219-161.137-47.106 8.447.974 16.568 1.299 25.34 1.299 49.055 0 94.213-16.568 130.274-44.832-46.132-.975-84.792-31.188-98.112-72.772 6.498.974 12.995 1.624 19.818 1.624 9.421 0 18.843-1.3 27.614-3.573-48.081-9.747-84.143-51.98-84.143-102.985v-1.299c13.969 7.797 30.214 12.67 47.431 13.319-28.264-18.843-46.781-51.005-46.781-87.391 0-19.492 5.197-37.36 14.294-52.954 51.655 63.675 129.3 105.258 216.365 109.807-1.624-7.797-2.599-15.918-2.599-24.04 0-57.828 46.782-104.934 104.934-104.934 30.213 0 57.502 12.67 76.67 33.137 23.715-4.548 46.456-13.32 66.599-25.34-7.798 24.366-24.366 44.833-46.132 57.827 21.117-2.273 41.584-8.122 60.426-16.243-14.292 20.791-32.161 39.308-52.628 54.253z"></path>
    </symbol>

    <symbol id="icon-instagram" viewBox="0 0 448 512">
      <path d="M224.1 141c-63.6 0-114.9 51.3-114.9 114.9s51.3 114.9 114.9 114.9S339 319.5 339 255.9 287.7 141 224.1 141zm0 189.6c-41.1 0-74.7-33.5-74.7-74.7s33.5-74.7 74.7-74.7 74.7 33.5 74.7 74.7-33.6 74.7-74.7 74.7zm146.4-194.3c0 14.9-12 26.8-26.8 26.8-14.9 0-26.8-12-26.8-26.8s12-26.8 26.8-26.8 26.8 12 26.8 26.8zm76.1 27.2c-1.7-35.9-9.9-67.7-36.2-93.9-26.2-26.2-58-34.4-93.9-36.2-37-2.1-147.9-2.1-184.9 0-35.8 1.7-67.6 9.9-93.9 36.1s-34.4 58-36.2 93.9c-2.1 37-2.1 147.9 0 184.9 1.7 35.9 9.9 67.7 36.2 93.9s58 34.4 93.9 36.2c37 2.1 147.9 2.1 184.9 0 35.9-1.7 67.7-9.9 93.9-36.2 26.2-26.2 34.4-58 36.2-93.9 2.1-37 2.1-147.8 0-184.8zM398.8 388c-7.8 19.6-22.9 34.7-42.6 42.6-29.5 11.7-99.5 9-132.1 9s-102.7 2.6-132.1-9c-19.6-7.8-34.7-22.9-42.6-42.6-11.7-29.5-9-99.5-9-132.1s-2.6-102.7 9-132.1c7.8-19.6 22.9-34.7 42.6-42.6 29.5-11.7 99.5-9 132.1-9s102.7-2.6 132.1 9c19.6 7.8 34.7 22.9 42.6 42.6 11.7 29.5 9 99.5 9 132.1s2.7 102.7-9 132.1z"></path>
    </symbol>

    <symbol id="icon-star" viewBox="0 0 576 512">
      <path d="M259.3 17.8L194 150.2 47.9 171.5c-26.2 3.8-36.7 36.1-17.7 54.6l105.7 103-25 145.5c-4.5 26.3 23.2 46 46.4 33.7L288 439.6l130.7 68.7c23.2 12.2 50.9-7.4 46.4-33.7l-25-145.5 105.7-103c19-18.5 8.5-50.8-17.7-54.6L382 150.2 316.7 17.8c-11.7-23.6-45.6-23.9-57.4 0z"></path>
    </symbol>
  
</svg>
