<?xml version="1.0" standalone="no"?>
<!DOCTYPE svg PUBLIC "-//W3C//DTD SVG 20010904//EN"
 "http://www.w3.org/TR/2001/REC-SVG-20010904/DTD/svg10.dtd">
<svg version="1.0" xmlns="http://www.w3.org/2000/svg"
 width="1072.000000pt" height="1072.000000pt" viewBox="0 0 1072.000000 1072.000000"
 preserveAspectRatio="xMidYMid meet">
<metadata>
Created by potrace 1.14, written by Peter Selinger 2001-2017
</metadata>
<g transform="translate(0.000000,1072.000000) scale(0.100000,-0.100000)"
fill="#000000" stroke="none">
<path d="M8959 9588 c0 -7 -2 -49 -4 -93 -1 -44 -6 -147 -9 -230 -3 -82 -8
-208 -11 -280 -3 -71 -8 -182 -11 -245 -4 -107 -8 -192 -18 -490 -3 -63 -7
-180 -11 -260 -3 -80 -8 -199 -11 -265 -2 -66 -7 -176 -9 -245 -3 -69 -7 -181
-10 -250 -2 -69 -4 -125 -5 -125 -1 0 -3 -49 -5 -110 -1 -60 -6 -184 -10 -275
-4 -91 -8 -189 -9 -217 l-2 -53 131 -128 c153 -149 155 -151 154 -120 0 13 0
87 1 166 l1 142 167 0 167 0 -2 -602 c-1 -332 -4 -1487 -5 -2568 l-4 -1965
259 -1 258 0 -6 156 c-3 85 -8 216 -10 290 -3 74 -8 198 -11 275 -2 77 -7 203
-9 280 -2 77 -4 140 -5 140 -1 0 -3 59 -5 130 -2 72 -6 198 -9 280 -7 168 -15
399 -21 582 -2 67 -6 127 -10 133 -3 5 -1 10 5 10 6 0 8 5 5 10 -4 6 -8 65
-11 133 -4 117 -7 212 -19 557 -3 85 -8 218 -10 295 -13 333 -16 408 -20 550
-7 189 -18 495 -31 855 -2 74 -7 191 -9 260 -3 69 -7 199 -10 290 -3 91 -7
221 -10 290 -2 69 -7 195 -10 280 -3 85 -7 207 -10 270 -3 63 -7 187 -10 275
-10 307 -14 421 -20 585 -4 91 -8 212 -10 270 -13 377 -19 539 -26 645 0 6 1
24 4 42 2 18 2 35 -1 38 -5 4 -8 79 -11 253 l-1 52 -355 0 c-277 0 -355 -3
-356 -12z"/>
<path d="M1501 6457 c-50 -59 -137 -158 -198 -226 l-42 -46 1930 -3 c1061 -1
2799 -1 3861 0 l1933 3 -61 65 c-56 60 -137 147 -212 228 l-30 32 -3569 -1
-3568 0 -44 -52z"/>
<path d="M961 6450 l-73 -5 0 -2525 c1 -1389 1 -2530 2 -2535 0 -8 581 -11
1860 -11 l1860 0 0 56 c1 30 1 355 1 721 l1 667 29 4 c16 3 34 1 41 -3 7 -4
17 -5 22 -2 9 6 113 8 126 3 3 -1 10 -1 15 0 12 2 126 2 140 -1 6 -1 14 -1 20
1 11 2 206 2 220 -1 6 -1 14 -1 19 0 23 5 299 2 303 -3 3 -3 13 -2 22 3 9 5
25 5 36 1 20 -7 20 -16 20 -726 l0 -719 1873 0 c1287 -1 1875 2 1880 10 4 5 7
1147 7 2538 l0 2527 -22 1 c-13 0 -43 0 -68 0 -25 0 -57 0 -73 0 l-27 -1 0
-187 0 -188 -4062 -3 -4063 -2 0 189 c0 217 10 199 -109 191z m921 -990 l46 0
-1 -372 -2 -372 -258 -1 c-221 0 -260 2 -266 15 -4 8 -7 175 -7 370 l1 355 55
5 c30 3 129 4 220 3 91 -1 186 -2 212 -3z m1195 -4 c7 -6 6 -701 -1 -722 -5
-18 -18 -19 -261 -18 -140 0 -258 3 -261 7 -5 5 -8 533 -5 706 1 27 5 30 39
33 52 4 484 -1 489 -6z m1160 0 c8 -7 6 -726 -1 -734 -4 -3 -124 -6 -266 -7
l-260 0 -1 75 c0 80 0 637 1 657 0 6 8 13 17 15 27 5 505 0 510 -6z m1138 1
c7 -3 10 -119 10 -373 l0 -368 -263 -1 c-225 0 -263 2 -266 15 -2 8 -3 175 -3
370 l2 355 85 5 c95 6 418 3 435 -3z m1143 3 c10 0 12 -78 10 -372 l-3 -372
-255 -1 c-140 -1 -259 0 -265 2 -6 2 -10 128 -9 356 2 419 0 385 21 389 13 2
424 1 501 -2z m1159 -4 c8 -8 8 -96 0 -96 -5 0 -5 -5 -2 -11 7 -10 11 -201 5
-224 -1 -5 -1 -14 0 -20 5 -27 2 -303 -4 -313 -3 -6 -2 -13 3 -16 5 -4 6 -18
2 -33 l-7 -28 -262 0 -262 0 0 73 c-1 93 -1 546 0 616 l0 55 43 3 c56 4 480
-1 484 -6z m1135 4 l27 0 0 -372 0 -373 -247 1 c-136 1 -256 2 -267 3 -20 1
-20 7 -18 353 1 194 2 361 2 370 1 23 62 25 503 18z m-6890 -1419 c3 0 7 -168
7 -371 l0 -370 -42 0 c-23 0 -51 0 -62 0 -11 0 -49 0 -85 -1 -36 0 -72 0 -80
0 -8 0 -71 1 -140 3 l-125 3 -1 365 c0 201 1 367 2 370 2 4 503 5 526 1z
m1158 -46 c1 -76 1 -529 1 -623 -1 -53 -5 -81 -11 -77 -6 3 -125 6 -265 5
-140 0 -255 3 -256 7 0 11 0 705 0 723 1 13 36 15 266 15 l265 0 0 -50z m1156
43 c5 -6 9 -644 5 -725 -1 -9 -68 -12 -266 -13 l-265 0 0 72 c-2 292 1 661 4
667 6 9 513 8 522 -1z m1145 -3 c1 -5 2 -173 3 -373 l1 -362 -265 2 -265 3 -1
365 c-1 201 0 367 1 370 6 10 525 5 526 -5z m1142 6 c4 0 6 -166 5 -368 l-3
-368 -265 0 -264 0 -1 360 c-1 198 0 365 2 370 2 7 95 10 261 9 141 -1 260 -2
265 -3z m1152 -3 c10 -10 12 -118 2 -118 -4 0 -5 -5 -2 -11 7 -10 11 -201 5
-224 -1 -5 -1 -12 0 -15 1 -5 3 -330 1 -357 -1 -10 -61 -13 -266 -13 l-265 0
0 63 c-2 245 1 671 4 676 6 8 513 8 521 -1z m1160 -363 l0 -370 -50 -2 c-27
-1 -59 -3 -70 -3 -11 -1 -107 -1 -212 -1 -150 0 -193 3 -194 13 -5 79 -3 716
2 723 5 6 104 10 266 10 l258 0 0 -370z m-7200 -1040 c11 1 26 4 33 9 7 4 18
4 25 -1 10 -7 163 -10 192 -3 6 1 18 2 27 1 15 -1 17 -31 16 -374 l0 -372
-266 0 -267 0 0 370 0 370 83 1 c45 1 85 4 88 7 3 3 16 3 28 -1 11 -4 30 -7
41 -7z m1059 4 c-5 -8 -1 -8 14 0 12 6 23 8 25 4 3 -5 36 -7 74 -6 201 5 262
3 268 -8 5 -7 9 -606 5 -719 0 -13 -36 -15 -265 -15 -260 -1 -265 0 -266 20
-1 25 -1 684 0 707 1 14 10 16 55 15 30 -2 63 1 73 4 25 10 25 10 17 -2z
m1251 -1 c22 0 56 0 75 1 19 1 53 0 75 -2 22 -2 48 1 57 5 9 4 19 4 22 0 3 -5
19 -7 35 -6 27 2 31 -1 32 -24 0 -33 0 -693 0 -707 -1 -7 -88 -11 -266 -11
-230 1 -265 3 -265 16 -1 8 -2 174 -3 368 -2 398 -9 366 76 359 21 -2 40 -1
42 2 2 4 21 5 42 3 21 -2 56 -3 78 -4z m2155 -3 c41 0 85 3 98 7 16 6 21 4 16
-3 -5 -8 -1 -8 14 0 12 6 23 8 25 4 6 -10 130 -9 145 1 6 3 13 3 16 -2 2 -4
30 -7 60 -5 l56 2 0 -372 0 -373 -262 0 c-145 0 -265 3 -268 7 -4 6 -5 712 -1
742 1 5 6 5 13 1 7 -4 46 -8 88 -9z m1193 8 c7 -10 181 -8 197 2 9 6 11 4 5
-4 -6 -10 -3 -11 12 -2 11 6 23 7 27 4 10 -10 86 -9 86 1 0 6 5 5 11 -1 6 -6
17 -9 24 -7 7 3 16 0 21 -7 10 -17 11 -139 1 -139 -5 0 -5 -5 -1 -11 10 -16
11 -229 1 -229 -4 0 -4 -8 0 -17 10 -22 9 -145 -1 -161 -4 -7 -4 -12 1 -12 7
0 8 -69 4 -150 -1 -13 -36 -15 -266 -15 l-265 0 0 372 0 372 56 -2 c30 -2 58
1 60 5 6 10 21 10 27 1z m1161 -4 c-5 -8 -1 -8 14 0 12 6 23 8 25 4 3 -5 36
-7 74 -6 37 1 82 2 98 2 17 1 62 0 100 -2 l70 -2 0 -370 0 -370 -262 -1 c-229
0 -262 2 -265 15 -3 13 -2 700 1 723 1 4 25 6 55 5 30 -2 63 1 73 4 25 10 25
10 17 -2z"/>
<path d="M85 1240 c-2 -3 -3 -32 -3 -63 l1 -57 2269 0 2268 0 0 63 0 64 -2265
0 c-1247 0 -2268 -3 -2270 -7z"/>
<path d="M5619 1228 c0 -10 -1 -31 -1 -48 0 -16 1 -37 1 -45 1 -13 287 -15
2511 -15 l2510 0 -3 63 -2 62 -2507 1 c-2424 1 -2508 0 -2509 -18z"/>
</g>
</svg>
